PathFileType	4	(X/Y/Z)	/Users/itak/Documents/Research/Walk-IL/dataset/trc/00475_00167.trc
DataRate	CameraRate	NumFrames	NumMarkers	Units	OrigDataRate	OrigDataStartFrame	OrigNumFrames
100.000000	100.000000	4	53	mm	100.000000	203	543
Frame#	Time	RPSI			LPSI			L3			STRN			T10			C7			CLAV			RBAK			LBAK			LSHO			LUPA			LAEL			LAOL			LWPS			LFRA			LIFD			LHPS			LHTS			RSHO			RUPA			RAEL			RAOL			RWTS			RWPS			RFRA			RIFD			RHTS			RHPS			RBHD			LFHD			RFHD			LBHD			LHIP			RHIP			RASI			LASI			LKNE			LTHI			LANK			LTIP			LTOE			LMT1			LMT5			LHEE			RKNE			RTHI			RANK			RTIP			RTOE			RMT1			RMT5			RHEE			LWTS			
		X1	Y1	Z1	X2	Y2	Z2	X3	Y3	Z3	X4	Y4	Z4	X5	Y5	Z5	X6	Y6	Z6	X7	Y7	Z7	X8	Y8	Z8	X9	Y9	Z9	X10	Y10	Z10	X11	Y11	Z11	X12	Y12	Z12	X13	Y13	Z13	X14	Y14	Z14	X15	Y15	Z15	X16	Y16	Z16	X17	Y17	Z17	X18	Y18	Z18	X19	Y19	Z19	X20	Y20	Z20	X21	Y21	Z21	X22	Y22	Z22	X23	Y23	Z23	X24	Y24	Z24	X25	Y25	Z25	X26	Y26	Z26	X27	Y27	Z27	X28	Y28	Z28	X29	Y29	Z29	X30	Y30	Z30	X31	Y31	Z31	X32	Y32	Z32	X33	Y33	Z33	X34	Y34	Z34	X35	Y35	Z35	X36	Y36	Z36	X37	Y37	Z37	X38	Y38	Z38	X39	Y39	Z39	X40	Y40	Z40	X41	Y41	Z41	X42	Y42	Z42	X43	Y43	Z43	X44	Y44	Z44	X45	Y45	Z45	X46	Y46	Z46	X47	Y47	Z47	X48	Y48	Z48	X49	Y49	Z49	X50	Y50	Z50	X51	Y51	Z51	X52	Y52	Z52	X53	Y53	Z53	

204	2.03	-693.91552734375	935.5322875976562	-118.3375930786133	-681.85546875	927.3494262695312	-261.60498046875	-665.44970703125	1042.458251953125	-175.2488098144531	-370.5882263183594	1217.28759765625	-152.8619079589844	-666.0498046875	1166.620727539062	-179.5163726806641	-580.1121826171875	1428.165893554688	-158.1999053955078	-398.29150390625	1333.127685546875	-156.7828826904297	-657.6763305664062	1311.531494140625	-71.6055908203125	-608.21337890625	1386.84521484375	-262.38623046875	-493.2630310058594	1400.600341796875	-328.249755859375	-502.0673828125	1290.21044921875	-431.5653686523438	-492.3426818847656	1077.193603515625	-479.5465698242188	-583.0128173828125	1067.399780273438	-432.3910217285156	-463.0120849609375	862.656005859375	-490.7454833984375	-471.8717346191406	988.5914916992188	-487.084228515625	-417.109619140625	716.5636596679688	-454.6644897460938	-453.9076232910156	789.1065673828125	-500.2481994628906	-407.9085388183594	790.7445678710938	-443.2223510742188	-530.0670166015625	1394.884887695312	3.847508907318115	-561.7171630859375	1342.422973632812	78.39546203613281	-598.13134765625	1073.5361328125	174.6349334716797	-638.3943481445312	1050.380737304688	125.2157363891602	-501.3612365722656	858.1655883789062	187.4817810058594	-577.9027709960938	858.5501098632812	231.3525543212891	-599.9962158203125	1017.555358886719	194.3867492675781	-520.6409301757812	705.4635009765625	216.7650299072266	-499.5079956054688	762.2255249023438	213.6408843994141	-572.66259765625	771.3048095703125	242.2917022705078	-461.9535827636719	1621.1591796875	-62.06381225585938	-369.0614013671875	1623.6962890625	-246.5245819091797	-336.752197265625	1627.783203125	-120.0978775024414	-520.8565673828125	1621.444213867188	-229.7353820800781	-533.39404296875	820.79052734375	-365.5247192382812	-568.8162841796875	839.6456909179688	28.86719131469727	-470.4413452148438	889.304931640625	-32.01503372192383	-443.6646423339844	867.7987670898438	-283.7893371582031	-484.1650085449219	406.8758544921875	-347.8400268554688	-457.9342651367188	560.854248046875	-359.6997375488281	-878.2842407226562	232.4167175292969	-356.0420532226562	-616.8626098632812	314.4363403320312	-364.1881408691406	-787.1210327148438	42.76021957397461	-255.2091979980469	-813.4227294921875	113.1746063232422	-235.4362640380859	-826.2592163085938	92.99876403808594	-344.5991516113281	-888.5631713867188	284.6238403320312	-300.5692443847656	-422.0238952636719	467.7169189453125	-11.56803226470947	-491.3980712890625	716.0897827148438	36.54537582397461	-474.8289794921875	45.22211074829102	-14.55849552154541	-412.6127624511719	320.0382690429688	-7.718680858612061	-263.4507751464844	46.7319450378418	-79.72280120849609	-329.6237487792969	48.51153182983398	-108.4097900390625	-339.5887451171875	47.6906852722168	-0.2777206599712372	-543.9404296875	37.47354507446289	-51.75200271606445	-428.0894165039062	872.7032470703125	-425.7979125976562	
205	2.04	-684.4963989257812	937.261962890625	-119.192512512207	-670.6953735351562	928.6509399414062	-262.2881164550781	-656.0910034179688	1044.129150390625	-174.9426422119141	-361.3070678710938	1219.318237304688	-152.7671203613281	-656.4512329101562	1168.436767578125	-178.7360076904297	-570.69189453125	1430.16357421875	-157.4608459472656	-388.9966125488281	1335.155151367188	-156.8644561767578	-647.9754028320312	1313.721435546875	-70.42850494384766	-599.30126953125	1388.590087890625	-261.4220275878906	-484.8166809082031	1402.398071289062	-327.9491577148438	-494.2354125976562	1291.94189453125	-431.1351928710938	-484.30908203125	1079.140625	-479.3973693847656	-574.3455200195312	1068.767578125	-431.1731567382812	-453.747314453125	864.8923950195312	-490.9032287597656	-463.3887329101562	990.672119140625	-487.1685485839844	-405.3063354492188	719.4920043945312	-455.6866455078125	-443.6941223144531	791.5409545898438	-500.5652770996094	-396.9488830566406	793.7888793945312	-444.3392639160156	-519.809814453125	1397.133544921875	4.281815528869629	-550.6793823242188	1344.807983398438	79.28140258789062	-584.072998046875	1076.322998046875	177.6914215087891	-624.7034301757812	1052.341552734375	128.9837493896484	-484.0852966308594	862.7150268554688	190.8842926025391	-560.0891723632812	862.2286376953125	235.5342712402344	-584.90869140625	1020.450378417969	197.7801208496094	-500.0245056152344	710.1356201171875	222.5986175537109	-480.0037841796875	767.23193359375	218.47509765625	-553.09619140625	775.3324584960938	247.7283325195312	-451.5330200195312	1623.329467773438	-62.41293716430664	-359.9660949707031	1625.379760742188	-247.5557708740234	-326.7322692871094	1629.775634765625	-121.3555450439453	-511.6081848144531	1623.212280273438	-229.7057037353516	-519.7821044921875	823.0347900390625	-364.5936584472656	-561.881103515625	840.8258056640625	29.34982681274414	-462.3094787597656	890.5608520507812	-29.79059219360352	-432.45068359375	870.2105712890625	-281.2428894042969	-458.2571411132812	411.1650390625	-345.8353271484375	-436.3846740722656	565.3024291992188	-358.6395874023438	-851.1683349609375	233.3439331054688	-352.1118774414062	-590.4022216796875	317.906494140625	-361.6413879394531	-751.5068969726562	44.55570983886719	-257.5292358398438	-780.6668090820312	113.2866439819336	-235.2005462646484	-793.3173217773438	96.178955078125	-344.9910278320312	-863.0569458007812	283.5887451171875	-295.2051086425781	-419.2223815917969	467.2982788085938	-10.48104381561279	-485.9041442871094	716.4506225585938	37.52357864379883	-474.8663940429688	45.23175430297852	-14.61542892456055	-410.9573669433594	319.5204772949219	-6.939080715179443	-263.451416015625	46.71405410766602	-79.53890228271484	-329.5997619628906	48.55970764160156	-108.2682037353516	-339.6065979003906	47.57846069335938	-0.1343735307455063	-543.9312133789062	37.53246688842773	-51.97629928588867	-417.9655151367188	875.3018188476562	-426.4860229492188	
206	2.05	-675.0799560546875	938.9135131835938	-120.1447448730469	-659.4769897460938	930.0960083007812	-263.0437316894531	-646.7569580078125	1045.705932617188	-174.7802734375	-352.1465454101562	1221.368408203125	-152.7429351806641	-647.001708984375	1170.192016601562	-178.0351867675781	-561.4188842773438	1432.101440429688	-156.8631439208984	-379.890380859375	1337.17529296875	-157.0870208740234	-638.4010009765625	1315.8994140625	-69.37543487548828	-590.5474243164062	1390.231567382812	-260.5594787597656	-476.5719909667969	1404.110107421875	-327.7802124023438	-486.6126708984375	1293.605834960938	-430.8290100097656	-476.4450073242188	1080.9921875	-479.3436889648438	-565.8429565429688	1070.061645507812	-430.0359191894531	-444.7013549804688	867.025146484375	-491.152587890625	-455.0917663574219	992.6551513671875	-487.343017578125	-393.8250427246094	722.3106689453125	-456.7948303222656	-433.6694641113281	793.8805541992188	-500.951171875	-386.2562561035156	796.7149047851562	-445.5426025390625	-509.6714172363281	1399.382690429688	4.572937488555908	-539.7195434570312	1347.209838867188	80.02689361572266	-569.8510131835938	1079.152709960938	180.6176605224609	-610.9080810546875	1054.3583984375	132.7140045166016	-466.612548828125	867.3736572265625	193.9924621582031	-542.0279541015625	866.041259765625	239.515625	-569.6177368164062	1023.406921386719	201.0359344482422	-479.1280822753906	715.0400390625	228.2579803466797	-460.2629699707031	772.4280395507812	223.068603515625	-533.2225952148438	779.565673828125	253.0119476318359	-441.170654296875	1625.431884765625	-62.96138381958008	-350.9551086425781	1626.947387695312	-248.7900390625	-316.7812194824219	1631.661010742188	-122.8282089233398	-502.4351806640625	1624.911987304688	-229.8641052246094	-506.2069091796875	825.5706787109375	-363.7061767578125	-555.042724609375	841.8872680664062	29.73703384399414	-454.2843322753906	891.739990234375	-27.52140045166016	-421.3779296875	872.6575927734375	-278.5256042480469	-432.744140625	415.9419860839844	-343.80517578125	-415.1142272949219	570.21533203125	-357.542236328125	-823.3934326171875	232.6605529785156	-348.069091796875	-563.9186401367188	321.2773742675781	-359.0390014648438	-714.4722290039062	45.9996223449707	-259.3829956054688	-746.7584228515625	112.5605392456055	-234.8188934326172	-759.1319580078125	98.37289428710938	-345.0563659667969	-837.0406494140625	280.8761596679688	-289.7648010253906	-416.500244140625	466.8709411621094	-9.535863876342773	-480.5252685546875	716.7171630859375	38.37758255004883	-474.8940734863281	45.27071380615234	-14.70752239227295	-409.3266906738281	319.0238342285156	-6.280636310577393	-263.4157104492188	46.67121887207031	-79.38285827636719	-329.5752563476562	48.57251358032227	-108.1663360595703	-339.6280517578125	47.49462509155273	-0.02766540460288525	-543.9161987304688	37.61325454711914	-52.22054290771484	-408.05126953125	877.8029174804688	-427.2692260742188	
207	2.06	-665.6494750976562	940.485595703125	-121.1960830688477	-648.2538452148438	931.6180419921875	-263.8768310546875	-637.3909301757812	1047.196533203125	-174.7354278564453	-343.0782775878906	1223.43017578125	-152.7594909667969	-637.67431640625	1171.86328125	-177.4017486572266	-552.2831420898438	1433.953735351562	-156.3961486816406	-370.9615478515625	1339.177612304688	-157.4272918701172	-628.9359130859375	1318.030029296875	-68.44088745117188	-581.9349975585938	1391.752197265625	-259.7935485839844	-468.5054626464844	1405.725708007812	-327.7200317382812	-479.1584167480469	1295.199951171875	-430.6267395019531	-468.7236328125	1082.750122070312	-479.3775329589844	-557.4913940429688	1071.28955078125	-428.9908142089844	-435.8514099121094	869.04736328125	-491.4891662597656	-446.9544677734375	994.5399169921875	-487.6005554199219	-382.7043762207031	724.9892578125	-457.9483337402344	-423.8467407226562	796.1080932617188	-501.4006958007812	-375.8538208007812	799.4896240234375	-446.7905883789062	-499.66064453125	1401.621215820312	4.728635311126709	-528.8642578125	1349.630859375	80.63929748535156	-555.4956665039062	1082.016479492188	183.3977661132812	-597.017578125	1056.422119140625	136.3738250732422	-448.9527893066406	872.12548828125	196.7842407226562	-523.7383422851562	869.9718017578125	243.26708984375	-554.1477661132812	1026.41259765625	204.1349029541016	-458.0005187988281	720.1574096679688	233.6562347412109	-440.3302917480469	777.7906494140625	227.3519744873047	-513.0775756835938	783.9898681640625	258.0751342773438	-430.8630981445312	1627.450073242188	-63.69625091552734	-342.0269470214844	1628.37060546875	-250.2110748291016	-306.8963012695312	1633.4091796875	-124.499267578125	-493.3331604003906	1626.530639648438	-230.1971740722656	-492.7128295898438	828.3123168945312	-362.8552551269531	-548.2289428710938	842.8695068359375	30.02530097961426	-446.322265625	892.8544921875	-25.27060317993164	-410.4505004882812	875.1060791015625	-275.7049255371094	-407.6725769042969	421.0641784667969	-341.7354736328125	-394.1498718261719	575.5010375976562	-356.3689880371094	-794.9862670898438	230.3641204833984	-344.0037841796875	-537.4650268554688	324.4207458496094	-356.3980712890625	-676.249755859375	47.08035659790039	-260.760498046875	-711.8361206054688	111.0941925048828	-234.2818450927734	-723.9072265625	99.61582183837891	-344.8042297363281	-810.498291015625	276.5065002441406	-284.3602294921875	-413.7935791015625	466.4483947753906	-8.742345809936523	-475.1583862304688	716.9307250976562	39.0895881652832	-474.9058532714844	45.33456420898438	-14.8303689956665	-407.6659240722656	318.5497131347656	-5.751139640808105	-263.3473815917969	46.60633850097656	-79.25263977050781	-329.546630859375	48.55542755126953	-108.100700378418	-339.6492309570312	47.43821334838867	0.04150989651679993	-543.8927612304688	37.70770645141602	-52.47169494628906	-398.3661193847656	880.1854248046875	-428.1219177246094	
